<?xml version="1.0" encoding="UTF-8"?>
<svg id="Layer_1" data-name="Layer 1" xmlns="http://www.w3.org/2000/svg" viewBox="0 0 150 43.44">
  <defs>
    <style>
      .cls-1 {
        fill: #ed1c24;
      }
    </style>
  </defs>
  <g>
    <polygon class="cls-1" points="146.86 22.24 97.99 38.8 107.38 24.7 107.38 16.87 97.99 2.32 146.86 22.24"/>
    <path d="M95.56,40.69l10.85-16.29v-7.22L95.46.2l54.27,22.13-54.17,18.36ZM100.53,4.43l7.83,12.14v8.45l-7.92,11.91,43.57-14.76L100.53,4.43Z"/>
  </g>
  <g>
    <g>
      <polygon class="cls-1" points="63.53 24.51 43.68 42.64 2.01 42.64 21.2 24.51 63.53 24.51"/>
      <path d="M43.98,43.44H0l20.9-19.73h44.69l-21.61,19.73ZM4.01,41.83h39.37l18.09-16.52H21.51L4.01,41.83Z"/>
    </g>
    <g>
      <polygon points="39.84 43.23 38.79 42.04 58.2 23.91 59.26 25.1 39.84 43.23"/>
      <polygon points="39.84 43.23 38.79 42.04 58.2 23.91 59.26 25.1 39.84 43.23"/>
    </g>
    <g>
      <polygon points="35.04 43.23 33.99 42.04 53.63 23.91 54.67 25.1 35.04 43.23"/>
      <polygon points="35.04 43.23 33.99 42.04 53.63 23.91 54.67 25.1 35.04 43.23"/>
    </g>
    <g>
      <polygon points="30.68 43.23 29.62 42.04 49.04 23.91 50.09 25.1 30.68 43.23"/>
      <polygon points="30.68 43.23 29.62 42.04 49.04 23.91 50.09 25.1 30.68 43.23"/>
    </g>
    <g>
      <polygon points="25.88 43.23 24.83 42.04 44.47 23.91 45.51 25.1 25.88 43.23"/>
      <polygon points="25.88 43.23 24.83 42.04 44.47 23.91 45.51 25.1 25.88 43.23"/>
    </g>
    <g>
      <polygon points="21.29 43.23 20.25 42.04 39.88 23.91 40.93 25.1 21.29 43.23"/>
      <polygon points="21.29 43.23 20.25 42.04 39.88 23.91 40.93 25.1 21.29 43.23"/>
    </g>
    <g>
      <polygon points="16.49 43.23 15.45 42.04 35.08 23.91 36.13 25.1 16.49 43.23"/>
      <polygon points="16.49 43.23 15.45 42.04 35.08 23.91 36.13 25.1 16.49 43.23"/>
    </g>
    <g>
      <polygon points="12.13 43.23 11.08 42.04 30.5 23.91 31.56 25.1 12.13 43.23"/>
      <polygon points="12.13 43.23 11.08 42.04 30.5 23.91 31.56 25.1 12.13 43.23"/>
    </g>
    <g>
      <polygon points="7.33 43.24 6.29 42.04 26.15 23.91 27.19 25.11 7.33 43.24"/>
      <polygon points="7.33 43.24 6.29 42.04 26.15 23.91 27.19 25.11 7.33 43.24"/>
    </g>
  </g>
  <g>
    <g>
      <polygon class="cls-1" points="62.86 17.14 45.19 .8 3.73 .8 21.19 17.14 62.86 17.14"/>
      <path d="M64.89,17.95H20.89L1.72,0h43.77l19.4,17.95ZM21.49,16.34h39.33L44.89,1.61H5.75l15.74,14.73Z"/>
    </g>
    <g>
      <polygon points="57.75 17.74 40.08 1.4 41.13 .21 58.8 16.55 57.75 17.74"/>
      <polygon points="57.75 17.74 40.08 1.4 41.13 .21 58.8 16.55 57.75 17.74"/>
    </g>
    <g>
      <polygon points="52.95 17.74 35.28 1.4 36.32 .21 54 16.55 52.95 17.74"/>
      <polygon points="52.95 17.74 35.28 1.4 36.32 .21 54 16.55 52.95 17.74"/>
    </g>
    <g>
      <polygon points="48.37 17.74 30.92 1.4 31.97 .21 49.42 16.55 48.37 17.74"/>
      <polygon points="48.37 17.74 30.92 1.4 31.97 .21 49.42 16.55 48.37 17.74"/>
    </g>
    <g>
      <polygon points="43.79 17.74 26.12 1.4 27.17 .21 44.84 16.55 43.79 17.74"/>
      <polygon points="43.79 17.74 26.12 1.4 27.17 .21 44.84 16.55 43.79 17.74"/>
    </g>
    <g>
      <polygon points="39.43 17.74 21.54 1.4 22.58 .2 40.47 16.54 39.43 17.74"/>
      <polygon points="39.43 17.74 21.54 1.4 22.58 .2 40.47 16.54 39.43 17.74"/>
    </g>
    <g>
      <polygon points="34.62 17.74 17.17 1.4 18.22 .21 35.68 16.55 34.62 17.74"/>
      <polygon points="34.62 17.74 17.17 1.4 18.22 .21 35.68 16.55 34.62 17.74"/>
    </g>
    <g>
      <polygon points="30.04 17.74 12.37 1.4 13.41 .21 31.09 16.55 30.04 17.74"/>
      <polygon points="30.04 17.74 12.37 1.4 13.41 .21 31.09 16.55 30.04 17.74"/>
    </g>
    <g>
      <polygon points="25.46 17.74 7.58 1.4 8.62 .2 26.5 16.54 25.46 17.74"/>
      <polygon points="25.46 17.74 7.58 1.4 8.62 .2 26.5 16.54 25.46 17.74"/>
    </g>
  </g>
  <g>
    <polygon class="cls-1" points="16.06 20.63 16.95 24.1 73.96 24.1 89.72 24.1 107.18 24.1 107.18 17.43 89.72 17.43 73.96 17.43 16.95 17.43 16.06 20.63"/>
    <path d="M108.16,25.11H16.2l-1.15-4.49,1.17-4.19h91.94v8.68ZM17.7,23.1h88.5v-4.67H17.69l-.61,2.21.63,2.46Z"/>
  </g>
</svg>