<?xml version="1.0" encoding="UTF-8"?>
<svg id="Layer_1" data-name="Layer 1" xmlns="http://www.w3.org/2000/svg" viewBox="0 0 150 43.44">
  <defs>
    <style>
      .cls-1 {
        fill: #00a151;
      }
    </style>
  </defs>
  <path class="cls-1" d="M125.1,21.72c16.58,0,24.11-11.7,24.11-20.96h-38.69c0,9.26-3.01,18.52-19.59,18.52h-47.72c16.58,0,19.59-9.26,19.59-18.52C62.8,10.02,16.58,21.72,0,21.72c16.58,0,62.8,11.69,62.8,20.96,0-9.26-3.02-18.52-19.59-18.52h47.72c16.58,0,19.59,9.26,19.59,18.52h38.69c0-9.26-7.54-20.96-24.11-20.96Z"/>
  <path d="M150,43.44h-40.26v-.76c0-8.27-2.14-17.76-18.81-17.76h-37.67c9.05,3.3,10.32,11.35,10.32,17.76h-1.57c0-8.03-44.03-20.2-62.02-20.2v-1.52c17.98,0,62.02-12.17,62.02-20.2h1.57c0,6.41-1.27,14.46-10.32,17.76h37.67c16.67,0,18.81-9.49,18.81-17.76v-.76h40.26v.76c0,8.9-6.23,18.27-17.92,20.96,11.69,2.69,17.92,12.06,17.92,20.96v.76ZM111.31,41.92h37.11c-.41-9.56-8.55-19.43-23.31-19.43v-1.52c14.76,0,22.9-9.87,23.31-19.43h-37.11c-.14,8.17-2.66,18.52-20.37,18.52h-47.72v-1.52c14.31,0,17.91-6.99,18.64-14.2-4.42,4.67-16.3,8.81-24,11.12-9.5,2.85-20.12,5.15-28.5,6.28,17.44,2.34,45.31,9.72,52.5,17.38-.74-7.2-4.35-14.18-18.64-14.18v-1.52h47.72c17.71,0,20.24,10.35,20.37,18.52Z"/>
</svg>